<svg xmlns="http://www.w3.org/2000/svg" width="256" height="256" viewBox="0 0 256 256" role="img" aria-label="readme-preview logo">
  <rect x="24" y="24" width="208" height="208" rx="44" fill="#111111"/>
  <path d="M86 76h70l22 22v82a16 16 0 0 1-16 16H86a16 16 0 0 1-16-16V92a16 16 0 0 1 16-16z" fill="#ffffff" opacity="0.96"/>
  <path d="M156 76v22a10 10 0 0 0 10 10h22" fill="#ffffff" opacity="0.85"/>
  <rect x="92" y="120" width="76" height="10" rx="5" fill="#111111" opacity="0.92"/>
  <rect x="92" y="142" width="60" height="8" rx="4" fill="#111111" opacity="0.72"/>
  <circle cx="128" cy="158" r="10" fill="#111111" opacity="0.18"/>
  <path d="M204 52c0 32-20 52-52 52" fill="none" stroke="#E00000" stroke-width="12" stroke-linecap="round"/>
</svg>
